<?xml version="1.0" standalone="no"?>
<!DOCTYPE svg PUBLIC "-//W3C//DTD SVG 20010904//EN"
 "http://www.w3.org/TR/2001/REC-SVG-20010904/DTD/svg10.dtd">
<svg version="1.0" xmlns="http://www.w3.org/2000/svg"
 width="310.000000pt" height="266.000000pt" viewBox="0 0 310.000000 266.000000"
 preserveAspectRatio="xMidYMid meet">

<g transform="translate(0.000000,266.000000) scale(0.100000,-0.100000)"
fill="#000000" stroke="none">
<path d="M2143 2482 l-40 -47 -36 32 c-41 36 -88 48 -150 39 -44 -7 -153 -53
-145 -61 3 -3 29 0 58 6 68 14 159 6 200 -17 46 -28 35 -48 -30 -55 -30 -4
-68 -12 -84 -18 -42 -17 -106 -64 -106 -79 0 -7 24 -24 53 -38 28 -14 40 -23
25 -20 -19 4 -26 2 -24 -9 7 -45 87 -79 165 -68 38 5 42 8 27 19 -13 9 -16 21
-11 46 3 19 -1 54 -9 83 -9 28 -16 53 -16 58 0 12 29 8 62 -9 30 -16 31 -15
24 5 -18 59 -19 66 -8 56 16 -14 78 -191 87 -245 7 -48 59 -149 101 -200 15
-17 25 -32 23 -34 -8 -6 -105 -38 -131 -43 -22 -4 -28 -2 -28 13 -1 16 -4 15
-25 -9 -34 -39 -41 -73 -21 -96 30 -33 51 -31 86 5 33 35 57 41 91 23 19 -10
19 -12 -12 -46 -28 -33 -31 -41 -26 -83 l6 -46 -29 4 c-22 3 -50 -8 -110 -43
-45 -26 -80 -49 -78 -50 2 -2 30 4 62 12 67 17 106 7 106 -27 0 -11 4 -20 9
-20 9 0 41 61 41 79 0 6 5 11 10 11 16 0 12 -27 -10 -70 -25 -49 -34 -54 -62
-36 -13 7 -45 17 -73 20 -27 4 -63 9 -80 12 -24 5 -28 4 -18 -6 7 -7 40 -14
75 -16 83 -4 106 -17 105 -59 l-1 -32 -24 28 c-13 16 -38 33 -55 38 -18 5 -41
12 -52 16 -14 6 -17 5 -10 -2 6 -6 26 -16 47 -22 48 -16 88 -57 88 -91 0 -37
-24 -57 -46 -39 -13 11 -13 7 2 -30 20 -50 15 -131 -11 -181 -15 -29 -20 -32
-51 -27 -19 3 -89 28 -156 55 -112 45 -123 51 -120 73 18 172 16 201 -24 248
-41 49 -77 50 -181 3 -122 -55 -155 -61 -185 -31 -13 13 -39 62 -58 109 -50
124 -65 146 -143 201 -67 47 -71 52 -72 89 -1 49 -32 84 -125 145 -88 57 -136
77 -194 78 l-50 1 -94 -99 c-127 -135 -170 -221 -179 -354 -5 -77 -10 -97 -27
-113 l-21 -20 37 7 c30 6 38 4 47 -13 16 -30 14 -32 -23 -32 -43 0 -49 -15
-32 -80 13 -49 12 -52 -7 -59 -19 -7 -19 -8 -2 -15 21 -8 38 11 29 34 -3 8 -8
37 -11 64 l-6 49 41 -7 c23 -3 42 -4 42 -1 0 21 -37 75 -52 75 -14 0 -17 6
-13 28 2 15 7 62 11 105 8 109 50 189 161 309 48 51 100 99 115 106 50 22 137
-11 256 -95 69 -49 95 -87 86 -130 -4 -25 1 -32 55 -66 82 -52 112 -90 150
-183 48 -120 61 -142 92 -154 35 -15 61 -9 159 35 103 46 122 50 160 30 39
-20 60 -67 60 -135 0 -56 -18 -140 -30 -140 -4 0 -81 34 -171 76 -237 110
-392 199 -463 266 -33 32 -73 60 -90 64 -16 3 -50 17 -75 31 -41 22 -54 24
-121 20 -65 -5 -200 -41 -200 -53 0 -10 41 -84 46 -84 3 0 20 11 37 24 59 45
117 66 188 66 49 0 70 -4 80 -16 11 -13 10 -17 -4 -25 -9 -6 -17 -17 -17 -25
0 -13 -6 -14 -32 -7 -92 23 -179 -5 -210 -67 -19 -37 -9 -64 19 -53 13 5 15 1
9 -22 l-7 -28 67 6 c63 6 106 24 129 53 6 7 39 20 75 29 61 16 65 16 78 -2 35
-47 63 -116 60 -151 -3 -40 -19 -51 -96 -72 -47 -12 -110 -63 -141 -113 -10
-18 -31 -67 -45 -110 -31 -92 -84 -200 -136 -277 -44 -65 -67 -127 -74 -201
-6 -53 -6 -53 8 11 18 86 36 128 91 210 53 79 93 165 125 266 40 125 113 197
219 218 49 9 61 23 61 70 0 45 -37 131 -69 160 -16 15 -24 15 -80 2 -53 -12
-61 -12 -61 0 0 10 -5 12 -12 7 -7 -4 -47 -13 -88 -20 -41 -7 -87 -15 -102
-19 -22 -5 -28 -3 -28 10 0 33 32 65 81 81 57 19 95 15 154 -16 22 -12 34 -15
28 -8 -18 18 -16 44 2 59 9 7 14 19 11 27 -6 15 17 17 42 4 9 -5 37 -29 62
-53 75 -72 332 -213 607 -332 l42 -19 -17 -29 c-33 -57 -110 -93 -222 -106
l-62 -7 -60 -171 -60 -172 -60 -27 c-72 -32 -310 -111 -468 -154 -63 -18 -123
-36 -133 -42 -22 -12 -89 5 -112 28 -28 27 -33 56 -31 152 l2 92 38 25 c50 34
39 43 -13 10 -49 -31 -51 -31 -51 -7 0 23 51 45 144 62 36 7 66 16 66 21 0 16
-80 8 -155 -16 -41 -13 -75 -20 -75 -15 0 5 7 9 15 9 8 0 24 13 36 29 21 28
22 29 105 23 46 -2 84 -2 84 1 0 4 -32 23 -72 43 -62 31 -78 36 -120 31 l-48
-6 0 37 c0 20 -3 47 -6 59 -5 19 -1 22 43 28 108 14 147 56 98 104 l-26 26 12
-29 c12 -25 11 -30 -6 -43 -19 -14 -52 -13 -86 1 -11 5 -20 -3 -32 -29 -9 -19
-21 -35 -27 -35 -16 0 -50 80 -50 117 0 24 7 37 25 49 14 9 23 19 20 22 -3 3
-16 -5 -30 -18 -17 -16 -25 -34 -25 -56 0 -39 39 -124 56 -124 6 0 15 -7 18
-16 10 -26 7 -89 -6 -102 -14 -14 -13 -61 2 -108 10 -29 16 -35 33 -30 15 4
17 2 8 -7 -15 -15 -14 -50 2 -66 8 -8 11 -40 10 -97 -5 -154 51 -200 212 -174
90 14 130 5 176 -41 54 -54 79 -140 88 -304 l8 -130 1 105 c4 268 -85 407
-247 386 -25 -3 22 14 104 38 164 49 353 113 428 145 55 24 60 33 127 237 l44
131 67 6 c88 7 153 37 205 92 l41 44 136 -54 c74 -30 150 -55 167 -55 26 0 33
6 47 38 10 21 18 68 19 109 1 48 7 81 18 98 9 13 17 37 17 52 1 18 3 22 6 10
4 -14 8 -16 19 -6 16 13 19 55 4 64 -6 4 -2 17 10 35 37 52 43 83 26 135 -9
25 -16 58 -16 74 0 24 6 31 45 45 55 21 85 58 85 102 0 24 -6 37 -22 45 -53
28 -146 178 -164 263 -7 35 -29 106 -49 160 l-36 96 19 28 c11 15 29 35 40 45
20 18 20 18 26 -10 9 -44 24 -151 31 -226 4 -38 9 -66 12 -63 12 12 -32 322
-47 331 -4 2 -25 -17 -47 -43z m-117 2 c36 -17 67 -52 58 -65 -2 -4 -21 3 -40
16 -44 30 -88 39 -159 33 -62 -5 -63 -2 -8 17 52 19 108 18 149 -1z m59 -105
c10 -14 1 -21 -19 -13 -9 3 -13 10 -10 15 7 12 21 11 29 -2z m-78 -26 c1 -10
8 -38 18 -62 22 -61 6 -122 -34 -120 -12 0 -11 2 4 9 18 8 17 10 -12 21 -18 8
-33 17 -33 21 0 4 -4 8 -10 8 -20 0 -120 42 -120 51 0 21 127 87 170 89 9 0
16 -8 17 -17z m-87 -164 c-11 -8 -7 -9 19 -5 29 5 32 4 21 -9 -16 -20 -23 -19
-51 5 l-24 19 25 1 c20 0 22 -2 10 -11z m410 -298 c12 -24 13 -61 1 -80 -7
-12 -14 -10 -36 8 -38 29 -71 27 -107 -10 -50 -50 -106 -23 -77 37 12 24 19
28 46 26 18 -2 47 3 65 11 71 32 94 34 108 8z m40 -40 c0 -15 -6 -35 -12 -44
-11 -15 -13 -9 -13 37 0 42 3 52 13 44 6 -6 12 -23 12 -37z m-70 -76 c-7 -8
-18 -15 -24 -15 -6 0 -2 7 8 15 25 19 32 19 16 0z m-1352 -101 c39 -11 24 -24
-27 -24 -61 0 -126 -22 -173 -61 l-37 -29 -16 31 c-21 39 -14 46 67 69 64 19
145 25 186 14z m1297 -44 c3 -5 -1 -26 -10 -46 -15 -35 -16 -36 -29 -18 -11
14 -26 19 -60 18 -52 -1 -51 0 1 32 39 24 87 31 98 14z m-1330 -161 c-16 -4
-37 -19 -46 -31 -15 -19 -20 -21 -43 -10 -14 6 -26 16 -26 21 0 11 70 29 115
29 l30 0 -30 -9z m35 -14 c0 -9 -62 -36 -68 -30 -9 9 28 35 50 35 10 0 18 -2
18 -5z m1278 -24 c4 -28 -13 -20 -21 9 -3 14 -1 20 6 17 7 -2 14 -14 15 -26z
m-1413 -11 c3 -5 -3 -10 -15 -10 -12 0 -18 5 -15 10 3 6 10 10 15 10 5 0 12
-4 15 -10z m-165 -250 c-14 -26 -35 -36 -92 -43 -47 -7 -47 -6 -36 18 9 19 14
22 29 15 27 -15 55 -12 80 10 30 24 32 25 19 0z m10 -205 c28 -14 50 -28 50
-31 0 -3 -31 -3 -69 1 l-70 7 -16 -31 c-8 -17 -21 -31 -29 -31 -15 0 -37 65
-29 85 11 31 102 31 163 0z"/>
</g>
</svg>
